# xmcd
#
# Track frame offsets: 
#        150
#        16877
#        31973
#        46129
#        61826
#        75993
#        89945
#        106318
#        119612
#        135250
#        149823
#        164987
#        180475
#        197497
#        209656
#        223309
#        240240
#        257222
#        273831
#        291219
#        311322
#
# Disc length: 4377 seconds
#
# Revision: 0
# Processed by: cddbd v1.5.2PL0 Copyright (c) Steve Scherf et al.
# Submitted via: ExactAudioCopy v0.99pb4
#
DISCID=38111715
DTITLE=Various Artist - Viva Vlaanderen - Het Beste Van 2015 CD 1
DYEAR=2015
DGENRE=Chanson
TTITLE0=Stan Van Samang - Goeiemorgend, Goeiendag (Live)
TTITLE1=Tourist LeMC - Koning Liefde
TTITLE2=Christoff - Vaarwel (Live)
TTITLE3=Aurélie - Meisje Met De Parel
TTITLE4=Will Tura - Viva La Vida
TTITLE5=Lindsay and Jan Smit - Duizend En Eén Nacht
TTITLE6=Bart Kaëll - Zeg Hallo
TTITLE7=Matthias Lens - Samen Uit, Samen Thuis
TTITLE8=Willy Sommers - Liefste
TTITLE9=Lissa Lewis - Wat Ik Voor Je Voel
TTITLE10=Gene Thomas - Fata Morgana
TTITLE11=Amaryllis Temmerman - Mooie Tijd
TTITLE12=Elke Taelman - Zolang Er Dromen Zijn
TTITLE13=Stef Bos - Geloven
TTITLE14=Frimout - Toffer Dan Tof
TTITLE15=Thé and Vrienden - Iedereen Is Van De Wereld
TTITLE16=De Geest - Maan
TTITLE17=Jonas Winterland - Het Meisje Uit Het Lied
TTITLE18=Buurman - Zoals Koffie Hoort Bij Opstaan
TTITLE19=Guido Belcanto, Kris De Bruyne and Stijn Meuris - Geef Me Liefd
TTITLE19=e
TTITLE20=Urbanus and De Fanfaar - De Wereld Is Om Zeep (Klimaat)
EXTD=
EXTT0=
EXTT1=
EXTT2=
EXTT3=
EXTT4=
EXTT5=
EXTT6=
EXTT7=
EXTT8=
EXTT9=
EXTT10=
EXTT11=
EXTT12=
EXTT13=
EXTT14=
EXTT15=
EXTT16=
EXTT17=
EXTT18=
EXTT19=
EXTT20=
PLAYORDER=
